<svg width="55" height="34" viewBox="0 0 55 34" fill="none" xmlns="http://www.w3.org/2000/svg">
<g clip-path="url(#clip0_2343_487)">
<path d="M11.251 6.57038C20.208 -2.10679 34.73 -2.10679 43.6869 6.57038L44.7649 7.6147C45.2128 8.04856 45.2128 8.75198 44.7649 9.18584L41.0774 12.7582C40.8534 12.9752 40.4904 12.9752 40.2665 12.7582L38.783 11.3211C32.5345 5.26771 22.4035 5.26771 16.1549 11.3211L14.5663 12.8601C14.3424 13.0771 13.9793 13.0771 13.7554 12.8601L10.0679 9.28775C9.62001 8.85389 9.62001 8.15047 10.0679 7.71661L11.251 6.57038ZM51.3131 13.9585L54.5951 17.1379C55.0429 17.5718 55.0429 18.2752 54.5951 18.709L39.7966 33.0455C39.3488 33.4794 38.6227 33.4794 38.1748 33.0455C38.1748 33.0455 38.1748 33.0455 38.1748 33.0455L27.6718 22.8705C27.5598 22.762 27.3783 22.762 27.2663 22.8705H27.2663L16.7635 33.0455C16.3157 33.4794 15.5896 33.4794 15.1417 33.0455C15.1417 33.0455 15.1417 33.0455 15.1417 33.0455L0.342843 18.7088C-0.105004 18.275 -0.105004 17.5716 0.342843 17.1377L3.62478 13.9583C4.07263 13.5244 4.79873 13.5244 5.24657 13.9583L15.7498 24.1334C15.8617 24.2419 16.0433 24.2419 16.1552 24.1334C16.1552 24.1334 16.1552 24.1334 16.1552 24.1334L26.6579 13.9583C27.1057 13.5244 27.8318 13.5244 28.2797 13.9582C28.2797 13.9582 28.2797 13.9582 28.2797 13.9583L38.7829 24.1334C38.8949 24.2419 39.0764 24.2419 39.1883 24.1334L49.6914 13.9585C50.1392 13.5246 50.8653 13.5246 51.3131 13.9585Z" fill="#3B99FC"/>
</g>
<defs>
<clipPath id="clip0_2343_487">
<rect width="54.9378" height="33.5214" fill="white"/>
</clipPath>
</defs>
</svg>
