<svg width="20" height="20" viewBox="0 0 20 20" fill="none" xmlns="http://www.w3.org/2000/svg">
<path d="M9.99996 4.99935C10.4602 4.99935 10.8333 5.37245 10.8333 5.83268V10.8327C10.8333 11.2929 10.4602 11.666 9.99996 11.666C9.53972 11.666 9.16663 11.2929 9.16663 10.8327V5.83268C9.16663 5.37245 9.53972 4.99935 9.99996 4.99935Z" fill="#37FAD3"/>
<path d="M9.99996 13.3327C9.53972 13.3327 9.16663 13.7058 9.16663 14.166C9.16663 14.6263 9.53972 14.9994 9.99996 14.9994C10.4602 14.9994 10.8333 14.6263 10.8333 14.166C10.8333 13.7058 10.4602 13.3327 9.99996 13.3327Z" fill="#37FAD3"/>
<path fill-rule="evenodd" clip-rule="evenodd" d="M9.99996 1.66602C5.39759 1.66602 1.66663 5.39698 1.66663 9.99935C1.66663 14.6017 5.39759 18.3327 9.99996 18.3327C14.6023 18.3327 18.3333 14.6017 18.3333 9.99935C18.3333 5.39698 14.6023 1.66602 9.99996 1.66602ZM3.33329 9.99935C3.33329 13.6812 6.31806 16.666 9.99996 16.666C13.6819 16.666 16.6666 13.6812 16.6666 9.99935C16.6666 6.31745 13.6819 3.33268 9.99996 3.33268C6.31806 3.33268 3.33329 6.31745 3.33329 9.99935Z" fill="#37FAD3"/>
</svg>
