<svg width="9" height="9" viewBox="0 0 9 9" fill="none" xmlns="http://www.w3.org/2000/svg">
<mask id="path-1-inside-1_2481_648" fill="white">
<path d="M4.50525 0H1.47231C0.662511 0 0 0.662511 0 1.47231V4.50525C0 5.31505 0.662511 5.97756 1.47231 5.97756H4.50525C5.31505 5.97756 5.97756 5.31505 5.97756 4.50525V1.47231C5.97756 0.662511 5.31505 0 4.50525 0ZM5.38869 4.50525C5.38869 4.99111 4.99114 5.38869 4.50525 5.38869H1.47231C0.986444 5.38869 0.588869 4.99114 0.588869 4.50525V1.47231C0.588869 0.986445 0.986418 0.58887 1.47231 0.58887H4.50525C4.99111 0.58887 5.38869 0.986418 5.38869 1.47231V4.50525Z"/>
</mask>
<path d="M4.50525 0H1.47231C0.662511 0 0 0.662511 0 1.47231V4.50525C0 5.31505 0.662511 5.97756 1.47231 5.97756H4.50525C5.31505 5.97756 5.97756 5.31505 5.97756 4.50525V1.47231C5.97756 0.662511 5.31505 0 4.50525 0ZM5.38869 4.50525C5.38869 4.99111 4.99114 5.38869 4.50525 5.38869H1.47231C0.986444 5.38869 0.588869 4.99114 0.588869 4.50525V1.47231C0.588869 0.986445 0.986418 0.58887 1.47231 0.58887H4.50525C4.99111 0.58887 5.38869 0.986418 5.38869 1.47231V4.50525Z" fill="#B6B2EF"/>
<path d="M4.50525 -0.836449H1.47231V0.836449H4.50525V-0.836449ZM1.47231 -0.836449C0.200553 -0.836449 -0.836449 0.200554 -0.836449 1.47231H0.836449C0.836449 1.12447 1.12447 0.836449 1.47231 0.836449V-0.836449ZM-0.836449 1.47231V4.50525H0.836449V1.47231H-0.836449ZM-0.836449 4.50525C-0.836449 5.77701 0.200553 6.81401 1.47231 6.81401V5.14111C1.12447 5.14111 0.836449 4.85309 0.836449 4.50525H-0.836449ZM1.47231 6.81401H4.50525V5.14111H1.47231V6.81401ZM4.50525 6.81401C5.77701 6.81401 6.81401 5.77701 6.81401 4.50525H5.14111C5.14111 4.85309 4.85309 5.14111 4.50525 5.14111V6.81401ZM6.81401 4.50525V1.47231H5.14111V4.50525H6.81401ZM6.81401 1.47231C6.81401 0.200554 5.77701 -0.836449 4.50525 -0.836449V0.836449C4.85309 0.836449 5.14111 1.12447 5.14111 1.47231H6.81401ZM4.55224 4.50525C4.55224 4.51555 4.54878 4.52665 4.53771 4.53772C4.52665 4.54878 4.51555 4.55224 4.50525 4.55224V6.22514C5.45311 6.22514 6.22514 5.45306 6.22514 4.50525H4.55224ZM4.50525 4.55224H1.47231V6.22514H4.50525V4.55224ZM1.47231 4.55224C1.46201 4.55224 1.45091 4.54878 1.43984 4.53771C1.42878 4.52665 1.42532 4.51555 1.42532 4.50525H-0.247579C-0.247579 5.45311 0.524502 6.22514 1.47231 6.22514V4.55224ZM1.42532 4.50525V1.47231H-0.247579V4.50525H1.42532ZM1.42532 1.47231C1.42532 1.46201 1.42878 1.45091 1.43984 1.43984C1.45091 1.42878 1.46201 1.42532 1.47231 1.42532V-0.247579C0.524444 -0.247579 -0.247579 0.524503 -0.247579 1.47231H1.42532ZM1.47231 1.42532H4.50525V-0.247579H1.47231V1.42532ZM4.50525 1.42532C4.51555 1.42532 4.52665 1.42878 4.53772 1.43984C4.54878 1.45091 4.55224 1.46201 4.55224 1.47231H6.22514C6.22514 0.524444 5.45306 -0.247579 4.50525 -0.247579V1.42532ZM4.55224 1.47231V4.50525H6.22514V1.47231H4.55224Z" fill="#B6B2EF" mask="url(#path-1-inside-1_2481_648)"/>
<mask id="path-3-inside-2_2481_648" fill="white">
<path d="M7.44959 8.33205H4.41664C3.93078 8.33205 3.5332 7.9345 3.5332 7.44861V6.85974H2.94434V7.44861C2.94434 8.25841 3.60685 8.92092 4.41664 8.92092H7.44959C8.25938 8.92092 8.92189 8.25841 8.92189 7.44861V4.41566C8.92189 3.60587 8.25938 2.94336 7.44959 2.94336H6.86072V3.53223H7.44959C7.93545 3.53223 8.33303 3.92978 8.33303 4.41566V7.44861C8.33303 7.93447 7.93548 8.33205 7.44959 8.33205Z"/>
</mask>
<path d="M7.44959 8.33205H4.41664C3.93078 8.33205 3.5332 7.9345 3.5332 7.44861V6.85974H2.94434V7.44861C2.94434 8.25841 3.60685 8.92092 4.41664 8.92092H7.44959C8.25938 8.92092 8.92189 8.25841 8.92189 7.44861V4.41566C8.92189 3.60587 8.25938 2.94336 7.44959 2.94336H6.86072V3.53223H7.44959C7.93545 3.53223 8.33303 3.92978 8.33303 4.41566V7.44861C8.33303 7.93447 7.93548 8.33205 7.44959 8.33205Z" fill="#B6B2EF"/>
<path d="M3.5332 6.85974H4.36965V6.02329H3.5332V6.85974ZM2.94434 6.85974V6.02329H2.10789V6.85974H2.94434ZM6.86072 2.94336V2.10691H6.02427V2.94336H6.86072ZM6.86072 3.53223H6.02427V4.36868H6.86072V3.53223ZM7.44959 7.4956H4.41664V9.1685H7.44959V7.4956ZM4.41664 7.4956C4.40635 7.4956 4.39524 7.49214 4.38418 7.48107C4.37311 7.47001 4.36965 7.45891 4.36965 7.44861H2.69676C2.69676 8.39648 3.46884 9.1685 4.41664 9.1685V7.4956ZM4.36965 7.44861V6.85974H2.69676V7.44861H4.36965ZM3.5332 6.02329H2.94434V7.69619H3.5332V6.02329ZM2.10789 6.85974V7.44861H3.78078V6.85974H2.10789ZM2.10789 7.44861C2.10789 8.72037 3.14489 9.75737 4.41664 9.75737V8.08447C4.0688 8.08447 3.78078 7.79645 3.78078 7.44861H2.10789ZM4.41664 9.75737H7.44959V8.08447H4.41664V9.75737ZM7.44959 9.75737C8.72134 9.75737 9.75834 8.72037 9.75834 7.44861H8.08545C8.08545 7.79645 7.79743 8.08447 7.44959 8.08447V9.75737ZM9.75834 7.44861V4.41566H8.08545V7.44861H9.75834ZM9.75834 4.41566C9.75834 3.14391 8.72134 2.10691 7.44959 2.10691V3.77981C7.79743 3.77981 8.08545 4.06783 8.08545 4.41566H9.75834ZM7.44959 2.10691H6.86072V3.77981H7.44959V2.10691ZM6.02427 2.94336V3.53223H7.69717V2.94336H6.02427ZM6.86072 4.36868H7.44959V2.69578H6.86072V4.36868ZM7.44959 4.36868C7.45988 4.36868 7.47099 4.37214 7.48205 4.3832C7.49312 4.39427 7.49658 4.40537 7.49658 4.41566H9.16947C9.16947 3.4678 8.39739 2.69578 7.44959 2.69578V4.36868ZM7.49658 4.41566V7.44861H9.16947V4.41566H7.49658ZM7.49658 7.44861C7.49658 7.45891 7.49312 7.47001 7.48205 7.48108C7.47099 7.49214 7.45989 7.4956 7.44959 7.4956V9.1685C8.39745 9.1685 9.16947 8.39642 9.16947 7.44861H7.49658Z" fill="#B6B2EF" mask="url(#path-3-inside-2_2481_648)"/>
</svg>
