<svg width="13" height="13" viewBox="0 0 13 13" fill="none" xmlns="http://www.w3.org/2000/svg">
<path fill-rule="evenodd" clip-rule="evenodd" d="M12.8588 0.826096L12.8536 0.885283L12.8503 5.07831C12.8503 5.33808 12.6644 5.55402 12.4192 5.59872L12.3247 5.60728C12.0343 5.60728 11.7991 5.37054 11.7991 5.07829L11.8013 2.1771L8.62994 5.36863L5.45861 8.56016C5.25328 8.76665 4.9205 8.76665 4.71517 8.56016C4.50998 8.35352 4.50998 8.01862 4.71517 7.81198L11.1314 1.35486L8.10764 1.35767C7.81739 1.35767 7.58199 1.12077 7.58199 0.828672C7.58199 0.536426 7.81739 0.299679 8.10764 0.299679L12.3331 0.296875C12.6233 0.296875 12.8588 0.533998 12.8588 0.826096Z" fill="#B6B2EF"/>
<path d="M3.12202 11.5864H8.87928C9.80156 11.5864 10.5563 10.8318 10.5563 9.90947V8.79166H11.6741V9.90947C11.6741 11.4467 10.4165 12.7043 8.87928 12.7043H3.12202C1.58484 12.7043 0.327235 11.4467 0.327235 9.90947V4.15221C0.327235 2.61503 1.58484 1.35742 3.12202 1.35742H4.23984V2.47524H3.12202C2.19974 2.47524 1.44505 3.22988 1.44505 4.15221V9.90947C1.44505 10.8318 2.19969 11.5864 3.12202 11.5864V11.5864Z" fill="#B6B2EF"/>
</svg>
