<svg width="25" height="25" viewBox="0 0 25 25" fill="none" xmlns="http://www.w3.org/2000/svg">
<path d="M17.5 11.9121V13.0905H9.79818L11.7451 15.0014L10.8962 15.8346L7.5 12.5013L10.8962 9.16797L11.7451 10.0012L9.79818 11.9121H17.5Z" fill="#B6B2EF"/>
<path d="M11.3095 1.19048H13.6905V0H11.3095V1.19048ZM23.8095 11.3095V13.6905H25V11.3095H23.8095ZM13.6905 23.8095H11.3095V25H13.6905V23.8095ZM1.19048 13.6905V11.3095H0V13.6905H1.19048ZM11.3095 23.8095C5.72095 23.8095 1.19048 19.2792 1.19048 13.6905H0C0 19.9363 5.06345 25 11.3095 25V23.8095ZM23.8095 13.6905C23.8095 19.2792 19.2792 23.8095 13.6905 23.8095V25C19.9363 25 25 19.9363 25 13.6905H23.8095ZM13.6905 1.19048C19.2792 1.19048 23.8095 5.72083 23.8095 11.3095H25C25 5.06369 19.9363 0 13.6905 0V1.19048ZM11.3095 0C5.06345 0 0 5.06369 0 11.3095H1.19048C1.19048 5.72083 5.72095 1.19048 11.3095 1.19048V0Z" fill="#B6B2EF"/>
</svg>
